<?xml version="1.0" encoding="UTF-8"?>
<svg id="Layer_1" data-name="Layer 1" xmlns="http://www.w3.org/2000/svg" viewBox="0 0 500 500">
  <!-- original fill: #231f20 -->
  <defs>
    <style>
      .cls-1 {
        fill:#3F4449;
        stroke-width: 0px;
      }
    </style>
  </defs>
  <path class="cls-1" d="M349.6,289.9v14.01s-19.73,32.29-81.28,32.29c-76.75,0-174.66-69.15-176.18-70.23,1.31.71,85.42,46.39,162.17,46.39,47.55,0,72.65-12.69,84.93-22.46h10.36Z"/>
  <polygon class="cls-1" points="369.47 299.78 376.73 322.12 357.73 308.31 338.73 322.12 345.98 299.78 326.98 285.97 350.47 285.97 357.73 263.63 364.99 285.97 388.48 285.97 369.47 299.78"/>
  <path class="cls-1" d="M278.72,280.28h-10.39l23.92-103.61-71.44,103.61h-11.55l-23.92-103.77-23.92,103.77h-10.56l26.89-116.47h14.35l24.91,106.58,73.58-106.58h15.01l-26.89,116.47Z"/>
  <path class="cls-1" d="M340.33,258.88c-2.14,9.07-3.79,13.2-6.43,16.83-3.13,4.45-9.07,6.93-16.17,6.93-10.39,0-17.32-5.94-17.32-14.85,0-2.47.5-5.44,1.32-9.24l3.3-14.19h7.92l-3.24,14.18-.23,1c-.66,2.8-.99,5.11-.99,6.76,0,6.1,3.63,9.4,10.06,9.4,3.79,0,7.26-1.48,9.24-3.96,1.98-2.47,2.8-5.28,4.79-13.86l21.45-93.21h7.92l-21.61,94.2Z"/>
</svg>